<?xml version="1.0"?>
<svg xmlns="http://www.w3.org/2000/svg" xmlns:xlink="http://www.w3.org/1999/xlink" xmlns:svgjs="http://svgjs.com/svgjs" version="1.1" width="512" height="512" x="0" y="0" viewBox="0 0 128 128" style="enable-background:new 0 0 512 512" xml:space="preserve" class=""><g><g xmlns="http://www.w3.org/2000/svg"><path d="m5.253 1.75h91.5v124.5h-91.5z" fill="#f9eab0" data-original="#f9eab0" style="" class=""/><path d="m13.253 9.75h75.5v25.25h-75.5z" fill="#fec400" data-original="#fec400" style="" class=""/><g fill="#e8d5a5"><path d="m88.753 48.76h-75.5a1.75 1.75 0 0 1 0-3.5h75.5a1.75 1.75 0 0 1 0 3.5z" fill="#e8d5a5" data-original="#e8d5a5" style="" class=""/><path d="m88.753 58.753h-75.5a1.75 1.75 0 0 1 0-3.5h75.5a1.75 1.75 0 0 1 0 3.5z" fill="#e8d5a5" data-original="#e8d5a5" style="" class=""/><path d="m88.753 68.747h-75.5a1.75 1.75 0 0 1 0-3.5h75.5a1.75 1.75 0 0 1 0 3.5z" fill="#e8d5a5" data-original="#e8d5a5" style="" class=""/><path d="m88.753 78.74h-75.5a1.75 1.75 0 0 1 0-3.5h75.5a1.75 1.75 0 0 1 0 3.5z" fill="#e8d5a5" data-original="#e8d5a5" style="" class=""/><path d="m88.753 88.734h-75.5a1.75 1.75 0 0 1 0-3.5h75.5a1.75 1.75 0 0 1 0 3.5z" fill="#e8d5a5" data-original="#e8d5a5" style="" class=""/><path d="m88.753 98.727h-75.5a1.75 1.75 0 0 1 0-3.5h75.5a1.75 1.75 0 1 1 0 3.5z" fill="#e8d5a5" data-original="#e8d5a5" style="" class=""/><path d="m77.331 108.721h-52.657a1.75 1.75 0 0 1 0-3.5h52.657a1.75 1.75 0 1 1 0 3.5z" fill="#e8d5a5" data-original="#e8d5a5" style="" class=""/></g><path d="m114.56 23.464c5.218 0 8.187-5.871 8.187-5.871l-8.187-10.007-8.188 10.007s2.969 5.871 8.188 5.871z" fill="#fdd7ad" data-original="#fdd7ad" style=""/><path d="m114.56 23.464c-5.219 0-8.188-5.871-8.188-5.871v84.391h16.375v-84.391s-2.969 5.871-8.187 5.871z" fill="#fec400" data-original="#fec400" style="" class=""/><path d="m112.81 23.233v78.751h3.5v-78.751a6.744 6.744 0 0 1 -3.5 0z" fill="#ff8c00" data-original="#ff8c00" style=""/><path d="m106.372 101.984h16.375v7.551h-16.375z" fill="#246084" data-original="#464f5d" style="" class=""/><path d="m106.372 109.535h16.375a0 0 0 0 1 0 0v6.88a4 4 0 0 1 -4 4h-8.375a4 4 0 0 1 -4-4v-6.88a0 0 0 0 1 0 0z" fill="#ef5350" data-original="#ef5350" style="" class=""/></g></g></svg>
